PathFileType	4	(X/Y/Z)	7_1_48_p1_0-293.trc
DataRate	CameraRate	NumFrames	NumMarkers	Units	OrigDataRate	OrigDataStartFrame	OrigNumFrames
60.0	60.0	7	27	m	60.0	110	294
Frame#	Time	RHip			RKnee			RAnkle			RBigToe			RSmallToe			RHeel			LHip			LKnee			LAnkle			LBigToe			LSmallToe			LHeel			Neck			Head			Nose			RShoulder			RElbow			RWrist			RThumb			RIndex			RPinky			LShoulder			LElbow			LWrist			LThumb			LIndex			LPinky			
		X1	Y1	Z1	X2	Y2	Z2	X3	Y3	Z3	X4	Y4	Z4	X5	Y5	Z5	X6	Y6	Z6	X7	Y7	Z7	X8	Y8	Z8	X9	Y9	Z9	X10	Y10	Z10	X11	Y11	Z11	X12	Y12	Z12	X13	Y13	Z13	X14	Y14	Z14	X15	Y15	Z15	X16	Y16	Z16	X17	Y17	Z17	X18	Y18	Z18	X19	Y19	Z19	X20	Y20	Z20	X21	Y21	Z21	X22	Y22	Z22	X23	Y23	Z23	X24	Y24	Z24	X25	Y25	Z25	X26	Y26	Z26	X27	Y27	Z27	
110	1.8333333333333333	0.28267989419249123	0.2744510502824144	1.1595129001986437	0.27028696516407524	0.25756136348166864	1.5953128397387482	0.2649199209040287	0.24801653719211303	2.0141313752376884	0.2653159501952412	0.08444560984643595	2.002653050342709	0.3207788029294231	0.11133613434339651	1.9983617677071628	0.24359860026652055	0.3024609181426885	2.0716523210752187	0.05929094691566968	0.28556042359387745	1.1768830543972846	0.0729871849988157	0.2618411293737995	1.6065311598798873	0.09725369799762174	0.23381817921574902	2.008382126367144	0.10788059032206206	0.07474670969809141	2.0072723812373368	0.049971163425340345	0.10401923709855232	2.0143345781062054	0.10702434837237422	0.26735358431399453	2.064562261944381	0.18753209972214133	0.2914802030740684	0.6225873261419925	0.1862366803034326	0.28944503563737756	0.3862040218153392	0.18798563110596953	0.17670689708420115	0.4867805032820677	0.343815693074006	0.27029791809792286	0.7077579139848016	0.36851168204734497	0.18747425783166585	0.9353842869095313	0.2363330207991011	0.09305696989454407	1.096251433231345	0.16324053691479715	0.09236784957505303	1.1904619689256322	0.16166611099697148	0.11304904377752653	1.2130617610640855	0.16802355976314884	0.11389996681931436	1.2156719101241908	0.015139319090010673	0.28548827079316486	0.6850490095586668	-0.014601011632019332	0.2278266100142138	0.9208643234260695	0.1100432518357312	0.06886175329817998	1.0885247920723484	0.20971376046822937	0.0485213494597303	1.1336336824217075	0.21065228915181863	0.05016701821591125	1.1684757379580628	0.1610763981783042	0.09033086838823802	1.2053279882654426
111	1.85	0.28275098037447993	0.2745278709383568	1.1595856038138432	0.2753499048630447	0.2691824561275712	1.6070555287113328	0.26501113241341046	0.24802431645701725	2.014110682994376	0.26492564731260104	0.08393724116473343	2.002224613632601	0.320559994593135	0.1108390176276499	1.9983225104642406	0.2447212013779093	0.30348603536854746	2.0773533430436824	0.0598745547155327	0.2860417140779524	1.1737736876556608	0.07314092023663425	0.2620714888934656	1.6075203737733406	0.09617150145577961	0.2336629455150565	2.0128749769696506	0.10791905580099743	0.07477833860289612	2.0078184726017523	0.04998721375431097	0.10364839741446982	2.0148415443974717	0.10584886774138551	0.26751073274880266	2.0695369088247517	0.18754027477889193	0.291513204976465	0.6226144481642766	0.18618196147197674	0.28938773337691226	0.3863066451015092	0.18797903511797862	0.1766754695961484	0.4867869344463923	0.34382020917576783	0.2702495407243578	0.7077832520684503	0.36850071818187785	0.18745833221373226	0.9352759373962602	0.23627960142617713	0.09309357594722925	1.0964881914195868	0.16253434539350428	0.09191922488924578	1.1945054492562097	0.16155124089603318	0.11294412032116104	1.2136241162535082	0.16801191805083618	0.11404420061123605	1.2159638696493158	0.014889407918853292	0.2849705961631116	0.688244059261979	-0.01417004603687905	0.22826071698341885	0.9248642576584526	0.11004708827858233	0.06890503529584868	1.0886831523803102	0.2097674647579351	0.04876732341594403	1.1327551954520283	0.21075744701045324	0.05018246480575102	1.1681619336533333	0.16116487198461898	0.09059245587275853	1.2050160319354912
112	1.8666666666666667	0.28273166699680335	0.27459232848067694	1.1598316670172197	0.27597239424786246	0.2693210947340939	1.6027556458352572	0.26491950146704135	0.24781839975657186	2.0139561935342605	0.26490695362728367	0.08408534137172181	2.0024967483881118	0.3194613021870109	0.1107586333575483	2.0028504638688687	0.24464923049007462	0.30325096401756163	2.0768362001624205	0.05988586441355278	0.2861023102447763	1.1739455001212842	0.0732210356688972	0.26217272777805	1.6076107224763128	0.09617482779074371	0.23358349710970885	2.0129074290661886	0.10791092212480692	0.07469036072058335	2.0081141304084205	0.04887959684011515	0.103369597079567	2.01920551140156	0.10586064617473859	0.2670439102347896	2.069203009474401	0.18752041090908186	0.29150001057144403	0.6227157763836876	0.18620127793957938	0.28950172031054483	0.3862854761140522	0.18796104660868546	0.17666233462089737	0.4868565667508931	0.3438425382902922	0.26999897097767467	0.7078435061949119	0.368484884972464	0.18744881747417297	0.9354149279046325	0.23581878444250592	0.09317139210549655	1.0997640260649715	0.16235811548181506	0.09193857654442576	1.1945586433181783	0.1614335857764618	0.11308412308931103	1.213546734256741	0.16801808911682464	0.11417532406357778	1.2158229328028114	0.014870575528567784	0.2849790524787704	0.688232885047187	-0.014528824165691004	0.22789674252409056	0.9282289458552667	0.11002120552984729	0.06883734091812939	1.088665612236629	0.20952383366230487	0.04871251355226319	1.1330662191334742	0.2068676678132974	0.0492063779983768	1.1683512164293133	0.1610260844378213	0.09054351253915718	1.2051617684082465
113	1.8833333333333333	0.28271291767579637	0.2744575712123224	1.159724057499454	0.271174964510491	0.2580617563577234	1.6003103473647589	0.26495836956949465	0.24783394681679943	2.013864301114029	0.264877999671271	0.08418952036721758	2.00267678928779	0.32045608635900075	0.11085498062248868	1.9984230915895709	0.2436787845382782	0.302426381662337	2.071324792881109	0.05926274317378636	0.2856263368500717	1.1773244386597108	0.07718898711174328	0.26405428561171246	1.6081046527757203	0.09618002891638865	0.2337204010696278	2.0127969391601788	0.1080143076737772	0.07480833018029302	2.007609414127139	0.04996540722800016	0.103790770547391	2.01465909796195	0.10703038776273906	0.26722335000825925	2.06447224453079	0.18750321602590095	0.29148845539308366	0.6226467687879278	0.18620050893062717	0.28949563946243856	0.3860443703959846	0.18793619375462559	0.1766186846407068	0.4868598333365026	0.34380774052890245	0.2701207712816576	0.7078247601701153	0.3684966321418353	0.18752059466708557	0.9351555981022115	0.23624717448521015	0.09324233589238183	1.0964579974981477	0.16244552002495444	0.09217567410671064	1.1943712933303907	0.16142418499506309	0.11316310652131924	1.2137163632229593	0.16795298314680276	0.11419756203532609	1.2158089566808001	0.014868104714311697	0.2850481153389891	0.6881227922925357	-0.014872450076928896	0.2275956097716019	0.9243897330627344	0.10996024994346607	0.06888120270518983	1.088743469274086	0.20959372649087848	0.04878177795699092	1.1332333528905318	0.20683188961900192	0.04929667049331794	1.1686788677081013	0.1610749496070095	0.09067761166266379	1.2053193951938292
114	1.9	0.28272257481381535	0.27444105971899824	1.1599167343010657	0.2711543573209744	0.25821048873673613	1.6005556104704548	0.26492579281375533	0.24797872693552644	2.0139244549772495	0.2648686270323589	0.0841159087922661	2.002414157368025	0.3204733166993641	0.11093745154597198	1.9982934745412257	0.2436244122286934	0.3024425860290961	2.0712383309797895	0.05918896651208704	0.28560646790115635	1.1779263195863143	0.07715180599032784	0.26400451158644817	1.6081383156558482	0.09615212846867255	0.23375607906977713	2.012909468483639	0.10789177537476893	0.0749232989921055	2.0079155561188653	0.048781953074736754	0.10406157781763682	2.019092293153334	0.10593436449640672	0.26709613215394407	2.0692796284540322	0.1873272337020823	0.29096751703557444	0.6257685415965227	0.18620066496259113	0.2895620678400461	0.38606989494846594	0.18790993803498596	0.17660604342642894	0.4869413582720678	0.3437285990994721	0.27026145415814684	0.7078871142680291	0.3684779169155406	0.1875652382157224	0.9350733416369268	0.23622853911693348	0.09335961072273762	1.0964078638896293	0.16262228588253413	0.09258462105629273	1.1941483941188578	0.16144827935309597	0.11332404512034042	1.2135860608045188	0.16781123370953027	0.11430738644254806	1.2158340205248845	0.014878601079994898	0.28505641225506667	0.688187244074187	-0.014814201350740307	0.22763823108130604	0.924341506020844	0.10996364569265618	0.0688570138421052	1.0887666146292554	0.20934420399192433	0.04984283015690215	1.131050885824488	0.2103861768123752	0.05042951100625701	1.1695630971147726	0.16099959630341562	0.09060311645892895	1.2057213088713534
115	1.9166666666666667	0.28274238009448843	0.2745486428162531	1.1598048552989377	0.27122707415871494	0.2581985401932542	1.6004923711171284	0.2649377594292885	0.2478470564016899	2.0138373128472753	0.26472174298999807	0.08398145693590556	2.002029264804325	0.32036640490604673	0.11084905516229383	1.9981396665835374	0.2434921463465586	0.30193803586961176	2.0705884380298825	0.059177112855638155	0.28559431022351445	1.1777969713514447	0.07716956263312609	0.26406788779959395	1.6080904141545975	0.09617770332458149	0.23367093095455713	2.012889130335097	0.10490993396672077	0.06469085925965752	2.000030591751389	0.0487671243492178	0.1038527830902399	2.0193381326775426	0.10694955125525621	0.2667140354508915	2.064181593425281	0.1874643415409143	0.29154548854722556	0.6226747005426485	0.18618733219319697	0.2894684294109582	0.38616222079976625	0.1878923001581439	0.17664171393024855	0.4869146503860157	0.3437252894773196	0.27033791803758367	0.7077973086875944	0.36849792730898034	0.18762107276475262	0.9349793361245229	0.23626484262227365	0.09337294401998743	1.0962974437018627	0.16257798889640707	0.0926277468898891	1.1943465928809895	0.16140605414626388	0.1134238290258675	1.2137408853787113	0.16781867835054584	0.11431560833962201	1.2156401774764853	0.014878667659462818	0.2851124403665815	0.6882097750198769	-0.014377695051195634	0.22806037529652337	0.9209682668933311	0.10993598161200625	0.06879844453353708	1.088615465451451	0.20531749018609483	0.06037818519380442	1.1366506116074688	0.20241371786603762	0.05957477411596501	1.1753779897581256	0.1608882895267738	0.09049078834641225	1.2058134022095135
116	1.9333333333333333	0.2827379992308994	0.27458532529600155	1.1598939529127636	0.2749833431106919	0.268573889792139	1.5973049137829436	0.2649752687130911	0.24812597442425477	2.0140578517726344	0.2639517556515685	0.08398363474131842	1.9970946643407645	0.31953082835980656	0.1110031920936579	2.003059054614075	0.24368773938937116	0.3024575555371671	2.0710469382185317	0.059246309351054856	0.28585690093292315	1.1781423118590015	0.07712182897118595	0.26406233455160066	1.6078379887566159	0.0932974648071968	0.2318656632414224	2.007243083432211	0.1076746830399988	0.07480297712844433	2.0077713446941714	0.04871996817974731	0.10406620092246048	2.01922547005303	0.10694999271070814	0.2665687909725656	2.06410598550907	0.18747991454521643	0.2915554111457119	0.6225284703220898	0.1861813821754163	0.2894725116283319	0.3861833020366711	0.18783911476259374	0.17668478407638263	0.4868540119615583	0.33966888654548383	0.26878718648778105	0.7076044202673253	0.3684857788559234	0.18765801054558823	0.9348763583369741	0.23627125917840733	0.09348883978389684	1.096439635923895	0.16250957858099677	0.09244498041069929	1.1946962598762347	0.16132176604704715	0.1133681551812586	1.213670950996723	0.16779432343090428	0.11449643404564668	1.215852104744714	0.014889873218105974	0.2851749033027967	0.6881623679854728	-0.014762485145419144	0.22782463217986781	0.9244324233219721	0.10988892324419908	0.06878787934232292	1.0885691566497486	0.2059763329246539	0.06052969637745734	1.1403048827425586	0.1993213391244667	0.05029916966086642	1.170862826336308	0.1608332498957051	0.09050549325748226	1.2056928372898357
